<svg aria-hidden="true" style="position: absolute; width: 0; height: 0; overflow: hidden;" version="1.1" xmlns="http://www.w3.org/2000/svg" xmlns:xlink="http://www.w3.org/1999/xlink">
<symbol id="icon-warning" viewBox="0 0 24 24">
<path d="M12.984 14.016v-4.031h-1.969v4.031h1.969zM12.984 18v-2.016h-1.969v2.016h1.969zM0.984 21l11.016-18.984 11.016 18.984h-22.031z"></path>
</symbol>
<symbol id="icon-clear" viewBox="0 0 24 24">
<path d="M18.984 6.422l-5.578 5.578 5.578 5.578-1.406 1.406-5.578-5.578-5.578 5.578-1.406-1.406 5.578-5.578-5.578-5.578 1.406-1.406 5.578 5.578 5.578-5.578z"></path>
</symbol>
<symbol id="icon-bar_chart" viewBox="0 0 24 24">
<path d="M16.219 12.984h2.766v6h-2.766v-6zM10.594 5.016h2.813v13.969h-2.813v-13.969zM5.016 9.188h3v9.797h-3v-9.797z"></path>
</symbol>
<symbol id="icon-pin_drop" viewBox="0 0 24 24">
<path d="M5.016 20.016h13.969v1.969h-13.969v-1.969zM9.984 8.016q0 0.844 0.586 1.406t1.43 0.563 1.43-0.563 0.586-1.406q0-0.797-0.609-1.406t-1.406-0.609-1.406 0.609-0.609 1.406zM18 8.016q0 2.016-1.5 4.758t-3 4.477l-1.5 1.734q-0.656-0.703-1.664-1.922t-2.672-4.125-1.664-4.922q0-2.484 1.758-4.242t4.242-1.758 4.242 1.758 1.758 4.242z"></path>
</symbol>
<symbol id="icon-menu" viewBox="0 0 24 24">
<path d="M3 6h18v2.016h-18v-2.016zM3 12.984v-1.969h18v1.969h-18zM3 18v-2.016h18v2.016h-18z"></path>
</symbol>
<symbol id="icon-notifications" viewBox="0 0 24 24">
<path d="M18 15.984l2.016 2.016v0.984h-16.031v-0.984l2.016-2.016v-4.969q0-2.344 1.195-4.078t3.305-2.25v-0.703q0-0.609 0.422-1.055t1.078-0.445 1.078 0.445 0.422 1.055v0.703q2.109 0.516 3.305 2.25t1.195 4.078v4.969zM12 21.984q-0.844 0-1.43-0.563t-0.586-1.406h4.031q0 0.797-0.609 1.383t-1.406 0.586z"></path>
</symbol>
<symbol id="icon-dashboard" viewBox="0 0 24 24">
<path d="M12.984 3h8.016v6h-8.016v-6zM12.984 21v-9.984h8.016v9.984h-8.016zM3 21v-6h8.016v6h-8.016zM3 12.984v-9.984h8.016v9.984h-8.016z"></path>
</symbol>
<symbol id="icon-search" viewBox="0 0 24 24">
<path d="M9.516 14.016q1.875 0 3.188-1.313t1.313-3.188-1.313-3.188-3.188-1.313-3.188 1.313-1.313 3.188 1.313 3.188 3.188 1.313zM15.516 14.016l4.969 4.969-1.5 1.5-4.969-4.969v-0.797l-0.281-0.281q-1.781 1.547-4.219 1.547-2.719 0-4.617-1.875t-1.898-4.594 1.898-4.617 4.617-1.898 4.594 1.898 1.875 4.617q0 0.984-0.469 2.227t-1.078 1.992l0.281 0.281h0.797z"></path>
</symbol>
<symbol id="icon-settings" viewBox="0 0 24 24">
<path d="M12 15.516q1.453 0 2.484-1.031t1.031-2.484-1.031-2.484-2.484-1.031-2.484 1.031-1.031 2.484 1.031 2.484 2.484 1.031zM19.453 12.984l2.109 1.641q0.328 0.234 0.094 0.656l-2.016 3.469q-0.188 0.328-0.609 0.188l-2.484-0.984q-0.984 0.703-1.688 0.984l-0.375 2.625q-0.094 0.422-0.469 0.422h-4.031q-0.375 0-0.469-0.422l-0.375-2.625q-0.891-0.375-1.688-0.984l-2.484 0.984q-0.422 0.141-0.609-0.188l-2.016-3.469q-0.234-0.422 0.094-0.656l2.109-1.641q-0.047-0.328-0.047-0.984t0.047-0.984l-2.109-1.641q-0.328-0.234-0.094-0.656l2.016-3.469q0.188-0.328 0.609-0.188l2.484 0.984q0.984-0.703 1.688-0.984l0.375-2.625q0.094-0.422 0.469-0.422h4.031q0.375 0 0.469 0.422l0.375 2.625q0.891 0.375 1.688 0.984l2.484-0.984q0.422-0.141 0.609 0.188l2.016 3.469q0.234 0.422-0.094 0.656l-2.109 1.641q0.047 0.328 0.047 0.984t-0.047 0.984z"></path>
</symbol>
<symbol id="icon-calendar_today" viewBox="0 0 24 24">
<path d="M20.016 21v-12.984h-16.031v12.984h16.031zM20.016 3q0.797 0 1.383 0.609t0.586 1.406v15.984q0 0.797-0.586 1.406t-1.383 0.609h-16.031q-0.797 0-1.383-0.609t-0.586-1.406v-15.984q0-0.797 0.586-1.406t1.383-0.609h1.031v-2.016h1.969v2.016h10.031v-2.016h1.969v2.016h1.031z"></path>
</symbol>
<symbol id="icon-close_fullscreen" viewBox="0 0 24 24">
<path d="M21.984 3.422l-5.297 5.297 3.328 3.281h-8.016v-8.016l3.281 3.328 5.297-5.297zM3.422 21.984l5.297-5.297 3.281 3.328v-8.016h-8.016l3.328 3.281-5.297 5.297z"></path>
</symbol>
<symbol id="icon-open_in_full" viewBox="0 0 24 24">
<path d="M21 11.016v-8.016h-8.016l3.328 3.281-10.031 10.031-3.281-3.328v8.016h8.016l-3.328-3.281 10.031-10.031z"></path>
</symbol>
<symbol id="icon-cloud" viewBox="0 0 32 32">
<path fill="#6467e5" style="fill: var(--color1, #6467e5)" d="M24.932 9.795c-0.348 0.001-0.689 0.030-1.021 0.086l0.036-0.005c-1.805-2.477-4.697-4.068-7.96-4.068-3.329 0-6.271 1.656-8.047 4.189l-0.021 0.031c-0.29-0.040-0.626-0.062-0.966-0.062-0.008 0-0.017 0-0.025 0h0.001c-3.844 0.080-6.93 3.215-6.93 7.070 0 0.044 0 0.088 0.001 0.132l-0-0.007c0.005 3.9 3.167 7.060 7.067 7.062h0c0.894-0.005 1.747-0.18 2.528-0.495l-0.046 0.016c1.708 1.517 3.97 2.443 6.448 2.443 2.544 0 4.859-0.976 6.593-2.574l-0.007 0.006c0.712 0.279 1.536 0.441 2.398 0.441 0.031 0 0.062-0 0.093-0.001l-0.005 0c3.844-0.080 6.929-3.215 6.929-7.070 0-0.036-0-0.072-0.001-0.107l0 0.005c0-0.007 0-0.015 0-0.024 0-3.904-3.163-7.069-7.067-7.072h-0z"></path>
</symbol>
<symbol id="icon-none" viewBox="0 0 32 32">
<path fill="#6467e5" style="fill: var(--color1, #6467e5)" d="M8.562 17.62h-0.072l-2.486-3.568-3.031-4.218h-1.548v12.333h1.949v-7.786h0.112l2.109 3.119 3.248 4.667h2.317v-12.333h-2.598v7.794zM12.411 22.816h1.844l4.563-13.632h-1.852zM26.212 9.833h-2.55l-4.41 12.333h2.598l0.802-2.598h4.467l0.802 2.598h2.654l-4.362-12.333zM23.293 17.62l0.585-1.748 1.042-3.44h0.072l1.067 3.496 0.521 1.692z"></path>
</symbol>
<symbol id="icon-cloudy" viewBox="0 0 32 32">
<path fill="#6467e5" style="fill: var(--color1, #6467e5)" d="M30.524 15.485c0.913 1.131 1.469 2.585 1.476 4.167v0.002c-0.041 3.799-3.129 6.862-6.934 6.862-0.019 0-0.037-0-0.056-0l0.003 0c-0.89-0.002-1.742-0.167-2.526-0.467l0.049 0.016c-1.736 1.498-4.014 2.411-6.505 2.411s-4.769-0.913-6.518-2.422l0.013 0.011c-0.736 0.282-1.588 0.446-2.477 0.446-0 0-0 0-0 0h0c-0.054 0.001-0.118 0.002-0.181 0.002-3.792 0-6.867-3.074-6.867-6.867s3.074-6.867 6.867-6.867c0.064 0 0.127 0.001 0.191 0.003l-0.009-0c0 0 0.001 0 0.002 0 0.348 0 0.689 0.026 1.023 0.077l-0.038-0.005c0.034-0.048 0.072-0.086 0.105-0.129-0.056-0.274-0.090-0.591-0.096-0.916l-0-0.005c0.035-3.025 2.495-5.463 5.525-5.463 0.014 0 0.027 0 0.041 0h-0.002c0.149 0 0.297 0 0.446 0 1.428-1.726 3.571-2.818 5.968-2.818s4.54 1.092 5.958 2.805l0.010 0.013c0.149 0 0.297 0 0.446 0 0.011-0 0.025-0 0.039-0 3.031 0 5.492 2.441 5.525 5.465l0 0.003c-0.005 1.426-0.566 2.72-1.478 3.678l0.002-0.002z"></path>
</symbol>
<symbol id="icon-cloudy-moon" viewBox="0 0 32 32">
<path fill="#bbc3da" style="fill: var(--color2, #bbc3da)" d="M24.592 10.135c-1.225-1.232-1.981-2.929-1.981-4.804 0-0.823 0.146-1.613 0.414-2.343l-0.015 0.047c-1.288 0.45-2.362 1.242-3.145 2.268l-0.012 0.016c-0.852 1.135-1.364 2.568-1.364 4.12 0 1.883 0.754 3.59 1.976 4.835l-0.001-0.001c1.234 1.232 2.937 1.994 4.818 1.994s3.585-0.762 4.818-1.994l-0 0c0.696-0.7 1.239-1.553 1.573-2.504l0.014-0.047c-0.683 0.252-1.473 0.399-2.296 0.399-1.874 0-3.572-0.757-4.804-1.982l0 0z"></path>
<path fill="#6467e5" style="fill: var(--color1, #6467e5)" d="M24.821 12.667c-0.349 0.003-0.689 0.033-1.021 0.086l0.039-0.005c-1.799-2.47-4.682-4.058-7.936-4.058-3.321 0-6.256 1.654-8.026 4.183l-0.021 0.032c-0.264-0.040-0.569-0.063-0.879-0.063-0.038 0-0.076 0-0.114 0.001l0.006-0c-3.822 0.133-6.869 3.263-6.869 7.105 0 3.891 3.125 7.051 7.002 7.108l0.005 0c0.892-0.002 1.742-0.177 2.52-0.493l-0.045 0.016c1.703 1.51 3.958 2.433 6.427 2.433 2.537 0 4.848-0.974 6.577-2.567l-0.007 0.006c0.713 0.281 1.54 0.444 2.404 0.444 0.026 0 0.053-0 0.079-0l-0.004 0c3.897-0.039 7.040-3.207 7.040-7.109 0-3.927-3.183-7.11-7.11-7.11-0.024 0-0.049 0-0.073 0l0.004-0z"></path>
</symbol>
<symbol id="icon-cloudy-sun" viewBox="0 0 32 32">
<path fill="#ffae47" style="fill: var(--color3, #ffae47)" d="M11.889 6.42c-0.004 0-0.009-0-0.014-0-3.513 0-6.363 2.843-6.373 6.354v0.001c0.083 3.461 2.908 6.235 6.381 6.235 0.051 0 0.103-0.001 0.154-0.002l-0.008 0c3.512-0.008 6.357-2.849 6.373-6.358v-0.002c-0.083-3.458-2.906-6.23-6.376-6.23-0.048 0-0.096 0.001-0.144 0.002l0.007-0zM11.59 4.555c0 0 0 0 0 0 0.49 0 0.888-0.396 0.89-0.886v-1.753c-0.057-0.447-0.435-0.79-0.893-0.79-0.473 0-0.861 0.365-0.897 0.829l-0 0.003v1.753c0.008 0.481 0.399 0.867 0.881 0.867 0.007 0 0.013-0 0.020-0l-0.001 0zM11.749 20.831c-0.001 0-0.003 0-0.005 0-0.489 0-0.886 0.397-0.886 0.886 0 0 0 0 0 0v0 1.753c0.035 0.468 0.423 0.835 0.898 0.835s0.863-0.367 0.897-0.832l0-0.003v-1.753c-0.015-0.48-0.408-0.863-0.89-0.863-0.005 0-0.010 0-0.015 0h0.001zM19.083 6.919l1.287-1.282c0.168-0.161 0.272-0.386 0.272-0.636s-0.104-0.476-0.271-0.636l-0-0c-0.168-0.165-0.398-0.267-0.653-0.267s-0.485 0.102-0.653 0.267l0-0-1.319 1.296c-0.166 0.161-0.27 0.387-0.27 0.636s0.103 0.475 0.269 0.636l0 0c0.169 0.17 0.403 0.276 0.662 0.276 0.266 0 0.506-0.111 0.675-0.29l0-0zM4.835 18.504l-1.287 1.287c-0.167 0.16-0.271 0.385-0.271 0.634s0.104 0.474 0.271 0.634l0 0c0.168 0.165 0.398 0.267 0.653 0.267s0.485-0.102 0.653-0.267l-0 0 1.291-1.287c0.166-0.16 0.269-0.385 0.269-0.634s-0.103-0.474-0.269-0.634l-0-0c-0.168-0.166-0.4-0.269-0.655-0.269s-0.487 0.103-0.655 0.269l0-0zM3.655 12.602c-0.023-0.497-0.431-0.891-0.932-0.891-0 0-0.001 0-0.001 0h0l-1.823 0.019c-0.497 0-0.9 0.403-0.9 0.9s0.403 0.9 0.9 0.9h1.865c0.495-0.023 0.888-0.429 0.891-0.928v-0zM22.999 11.516h-1.842c-0.019-0.002-0.042-0.002-0.065-0.002-0.497 0-0.9 0.403-0.9 0.9s0.403 0.9 0.9 0.9c0.023 0 0.045-0.001 0.068-0.002l-0.003 0h1.842c0.497 0 0.9-0.403 0.9-0.9s-0.403-0.9-0.9-0.9v0zM4.723 7.058c0.168 0.165 0.399 0.267 0.653 0.267s0.485-0.102 0.653-0.267l-0 0c0.166-0.161 0.27-0.387 0.27-0.636s-0.103-0.475-0.269-0.636l-0-0-1.315-1.259c-0.168-0.163-0.397-0.264-0.65-0.264s-0.483 0.101-0.651 0.264l0-0c-0.167 0.16-0.271 0.385-0.271 0.634s0.104 0.474 0.271 0.634l0 0zM19.176 18.364c-0.168-0.165-0.398-0.267-0.653-0.267s-0.485 0.102-0.653 0.267l0-0c-0.166 0.16-0.269 0.385-0.269 0.634s0.103 0.474 0.269 0.634l0 0 1.315 1.259c0.168 0.165 0.398 0.267 0.653 0.267s0.485-0.102 0.653-0.267l-0 0c0.166-0.161 0.27-0.387 0.27-0.636s-0.103-0.475-0.269-0.636l-0-0z"></path>
<path fill="#6467e5" style="fill: var(--color1, #6467e5)" d="M24.976 14.868c-0.346 0.006-0.68 0.034-1.006 0.084l0.041-0.005c-1.76-2.414-4.577-3.964-7.757-3.964-3.246 0-6.115 1.616-7.846 4.087l-0.020 0.031c-0.223-0.029-0.482-0.046-0.744-0.046-0.076 0-0.152 0.001-0.227 0.004l0.011-0c-3.81 0.038-6.884 3.136-6.884 6.951 0 3.839 3.112 6.952 6.952 6.952 0.024 0 0.048-0 0.071-0l-0.004 0c0.871-0.004 1.7-0.175 2.46-0.482l-0.045 0.016c1.667 1.477 3.873 2.378 6.29 2.378 2.48 0 4.739-0.95 6.431-2.506l-0.007 0.006c0.699 0.272 1.509 0.429 2.355 0.429 0.024 0 0.048-0 0.073-0l-0.004 0c3.81-0.038 6.884-3.136 6.884-6.951 0-3.839-3.112-6.952-6.952-6.952-0.024 0-0.047 0-0.071 0l0.004-0z"></path>
</symbol>
<symbol id="icon-hail" viewBox="0 0 32 32">
<path fill="#9ca6cf" style="fill: var(--color4, #9ca6cf)" d="M4.061 18.885c-1.143 0-2.070 0.927-2.070 2.070s0.927 2.070 2.070 2.070c1.143 0 2.070-0.927 2.070-2.070 0-0.002 0-0.003 0-0.005v0c0 0 0 0 0 0 0-1.141-0.925-2.066-2.066-2.066-0.002 0-0.003 0-0.005 0h0zM14.403 20.951c-1.143 0-2.070 0.927-2.070 2.070s0.927 2.070 2.070 2.070c1.143 0 2.070-0.927 2.070-2.070v0c0-0.004 0-0.009 0-0.014 0-1.143-0.927-2.070-2.070-2.070-0 0-0 0-0 0v0zM24.746 18.885c-1.143 0-2.070 0.927-2.070 2.070s0.927 2.070 2.070 2.070c1.143 0 2.070-0.927 2.070-2.070 0-0.002 0-0.003 0-0.005v0c0 0 0 0 0 0 0-1.141-0.925-2.066-2.066-2.066-0.002 0-0.003 0-0.005 0h0zM20.61 27.143c-0.001 0-0.003 0-0.005 0-1.143 0-2.070 0.927-2.070 2.070s0.927 2.070 2.070 2.070c1.143 0 2.070-0.927 2.070-2.070v0c0 0 0 0 0 0 0-1.142-0.924-2.068-2.065-2.070h-0zM8.178 27.143c-1.143 0-2.070 0.927-2.070 2.070s0.927 2.070 2.070 2.070c1.143 0 2.070-0.927 2.070-2.070v0c0-0.001 0-0.003 0-0.005 0-1.136-0.917-2.057-2.050-2.066h-0.001z"></path>
<path fill="#6467e5" style="fill: var(--color1, #6467e5)" d="M24.932 4.703c-0.348 0.001-0.689 0.030-1.021 0.086l0.036-0.005c-1.805-2.477-4.697-4.068-7.96-4.068-3.329 0-6.271 1.656-8.047 4.189l-0.021 0.032c-0.29-0.040-0.626-0.062-0.966-0.062-0.008 0-0.017 0-0.025 0h0.001c-3.844 0.080-6.93 3.215-6.93 7.070 0 0.044 0 0.088 0.001 0.132l-0-0.007c0.005 3.9 3.167 7.060 7.067 7.062h0c0.894-0.005 1.747-0.18 2.528-0.495l-0.046 0.016c1.708 1.517 3.97 2.443 6.448 2.443 2.544 0 4.859-0.976 6.593-2.574l-0.007 0.006c0.712 0.279 1.536 0.441 2.398 0.441 0.031 0 0.062-0 0.093-0.001l-0.005 0c3.844-0.080 6.929-3.215 6.929-7.070 0-0.036-0-0.072-0.001-0.107l0 0.005c0-0.007 0-0.015 0-0.024 0-3.904-3.163-7.069-7.067-7.072h-0z"></path>
</symbol>
<symbol id="icon-haze" viewBox="0 0 32 32">
<path fill="none" stroke="#9ca6cf" style="stroke: var(--color4, #9ca6cf)" stroke-linejoin="miter" stroke-linecap="butt" stroke-miterlimit="10" stroke-width="2.0961" d="M0.58 6.262c1.404-0.973 3.713-2.21 6.487-2.078 3.818 0.221 4.785 2.912 8.471 2.978 3.332 0.050 4.166-2.161 7.935-2.713 3.415-0.503 6.449 0.757 8.471 1.901"></path>
<path fill="none" stroke="#9ca6cf" style="stroke: var(--color4, #9ca6cf)" stroke-linejoin="miter" stroke-linecap="butt" stroke-miterlimit="10" stroke-width="2.0961" d="M0.635 13.225c1.409-0.973 3.719-2.21 6.493-2.072 3.813 0.216 4.785 2.912 8.471 2.973 3.354 0.055 4.166-2.144 7.93-2.702 3.409-0.514 6.438 0.763 8.471 1.868"></path>
<path fill="none" stroke="#9ca6cf" style="stroke: var(--color4, #9ca6cf)" stroke-linejoin="miter" stroke-linecap="butt" stroke-miterlimit="10" stroke-width="2.0961" d="M0 20.165c1.409-0.973 3.713-2.21 6.493-2.072 3.813 0.216 4.785 2.912 8.471 2.973 3.349 0.055 4.166-2.144 7.93-2.702 3.415-0.514 6.443 0.746 8.471 1.89"></path>
<path fill="none" stroke="#9ca6cf" style="stroke: var(--color4, #9ca6cf)" stroke-linejoin="miter" stroke-linecap="butt" stroke-miterlimit="10" stroke-width="2.0961" d="M0 26.923c1.409-0.967 3.713-2.21 6.493-2.072 3.813 0.216 4.785 2.912 8.471 2.973 3.349 0.061 4.166-2.139 7.93-2.702 3.415-0.508 6.443 0.746 8.471 1.89"></path>
</symbol>
<symbol id="icon-lightning" viewBox="0 0 32 32">
<path fill="#ffae47" style="fill: var(--color3, #ffae47)" d="M18.869 23.164l-2.893-0.215 2.974-3.228c0.018-0.020 0.029-0.047 0.029-0.077 0-0.060-0.047-0.11-0.106-0.114l-0-0-5.432-0.406-0.105 0.048-3.988 5.833c-0.012 0.018-0.019 0.039-0.019 0.063 0 0.060 0.046 0.109 0.104 0.114l2.516 0.186-1.568 4.738c-0.004 0.011-0.006 0.023-0.006 0.035 0 0.063 0.051 0.115 0.115 0.115 0.028 0 0.053-0.010 0.073-0.026l-0 0 8.368-6.866c0.024-0.021 0.040-0.052 0.040-0.087 0-0.059-0.044-0.107-0.101-0.114l-0.001-0z"></path>
<path fill="#6467e5" style="fill: var(--color1, #6467e5)" d="M24.932 5.73c-0.348 0.001-0.689 0.030-1.021 0.086l0.036-0.005c-1.805-2.477-4.697-4.068-7.96-4.068-3.329 0-6.271 1.656-8.047 4.189l-0.021 0.032c-0.29-0.040-0.626-0.062-0.966-0.062-0.008 0-0.017 0-0.025 0h0.001c-3.844 0.080-6.93 3.215-6.93 7.071 0 0.044 0 0.088 0.001 0.132l-0-0.007c0.005 3.9 3.167 7.060 7.067 7.062h0c0.894-0.005 1.747-0.18 2.528-0.495l-0.046 0.016c1.708 1.517 3.97 2.443 6.448 2.443 2.544 0 4.859-0.976 6.593-2.574l-0.007 0.006c0.712 0.279 1.536 0.441 2.398 0.441 0.031 0 0.062-0 0.093-0.001l-0.005 0c3.844-0.080 6.929-3.215 6.929-7.070 0-0.036-0-0.072-0.001-0.107l0 0.005c0-0.007 0-0.015 0-0.024 0-3.904-3.163-7.069-7.067-7.072h-0z"></path>
</symbol>
<symbol id="icon-moon" viewBox="0 0 32 32">
<path fill="#bbc3da" style="fill: var(--color2, #bbc3da)" d="M14.789 17.217c-2.958-2.96-4.787-7.049-4.787-11.565 0-1.987 0.354-3.891 1.003-5.652l-0.037 0.113c-3.105 1.080-5.693 2.99-7.575 5.466l-0.029 0.039c-2.051 2.734-3.285 6.185-3.285 9.924 0 4.536 1.816 8.648 4.76 11.648l-0.003-0.003c2.973 2.973 7.080 4.812 11.617 4.812s8.644-1.839 11.617-4.812v0c1.683-1.685 2.998-3.738 3.815-6.027l0.035-0.114c-1.64 0.606-3.534 0.956-5.511 0.956-4.525 0-8.621-1.837-11.583-4.805l-0-0z"></path>
</symbol>
<symbol id="icon-rainy" viewBox="0 0 32 32">
<path fill="#6467e5" style="fill: var(--color1, #6467e5)" d="M24.932 5.79c-0.348 0.001-0.689 0.030-1.021 0.086l0.036-0.005c-1.805-2.477-4.697-4.068-7.96-4.068-3.329 0-6.271 1.656-8.047 4.189l-0.021 0.032c-0.29-0.040-0.626-0.062-0.966-0.062-0.008 0-0.017 0-0.025 0h0.001c-3.844 0.080-6.93 3.215-6.93 7.070 0 0.044 0 0.088 0.001 0.132l-0-0.007c0.005 3.9 3.167 7.060 7.067 7.062h0c0.894-0.005 1.747-0.18 2.528-0.495l-0.046 0.016c1.708 1.517 3.97 2.443 6.448 2.443 2.544 0 4.859-0.976 6.593-2.574l-0.007 0.006c0.712 0.279 1.536 0.44 2.398 0.44 0.031 0 0.062-0 0.093-0.001l-0.005 0c3.844-0.080 6.929-3.215 6.929-7.070 0-0.036-0-0.072-0.001-0.107l0 0.005c0-0.007 0-0.015 0-0.024 0-3.904-3.163-7.069-7.067-7.072h-0z"></path>
<path fill="#9ca6cf" style="fill: var(--color4, #9ca6cf)" d="M13.786 23.071c0.040-0.038 0.094-0.062 0.153-0.062s0.113 0.024 0.153 0.062l-0-0c0.359 0.375 0.689 0.784 0.983 1.22l0.021 0.033c0.463 0.611 0.77 1.363 0.85 2.182l0.001 0.018c0.002 0.037 0.003 0.079 0.003 0.122 0 0.594-0.224 1.135-0.593 1.544l0.002-0.002c-0.371 0.347-0.871 0.56-1.42 0.56s-1.049-0.213-1.421-0.561l0.001 0.001c-0.353-0.403-0.569-0.934-0.569-1.516 0-0.052 0.002-0.104 0.005-0.155l-0 0.007c0.079-0.837 0.387-1.59 0.859-2.21l-0.008 0.011c0.308-0.47 0.631-0.879 0.985-1.258l-0.005 0.005z"></path>
<path fill="#9ca6cf" style="fill: var(--color4, #9ca6cf)" d="M21.26 24.52c0.040-0.038 0.094-0.062 0.153-0.062s0.113 0.024 0.153 0.062l-0-0c0.357 0.375 0.687 0.785 0.983 1.219l0.021 0.033c0.466 0.61 0.777 1.362 0.859 2.181l0.001 0.018c0.002 0.037 0.003 0.081 0.003 0.124 0 0.593-0.225 1.134-0.593 1.542l0.002-0.002c-0.371 0.347-0.871 0.56-1.42 0.56s-1.049-0.213-1.421-0.561l0.001 0.001c-0.367-0.406-0.591-0.947-0.591-1.54 0-0.044 0.001-0.087 0.004-0.13l-0 0.006c0.079-0.837 0.387-1.59 0.859-2.21l-0.008 0.011c0.314-0.469 0.641-0.878 0.999-1.258l-0.005 0.005z"></path>
</symbol>
<symbol id="icon-rainy-light" viewBox="0 0 32 32">
<path fill="#6467e5" style="fill: var(--color1, #6467e5)" d="M24.932 5.798c-0.348 0.001-0.689 0.030-1.021 0.086l0.036-0.005c-1.805-2.477-4.697-4.068-7.96-4.068-3.329 0-6.271 1.656-8.047 4.189l-0.021 0.032c-0.29-0.040-0.626-0.062-0.966-0.062-0.008 0-0.017 0-0.025 0h0.001c-3.844 0.080-6.93 3.215-6.93 7.071 0 0.044 0 0.088 0.001 0.132l-0-0.007c0.005 3.9 3.167 7.060 7.067 7.062h0c0.894-0.005 1.747-0.18 2.528-0.495l-0.046 0.016c1.708 1.517 3.97 2.443 6.448 2.443 2.544 0 4.859-0.976 6.593-2.574l-0.007 0.006c0.712 0.279 1.536 0.44 2.398 0.44 0.031 0 0.062-0 0.093-0.001l-0.005 0c3.844-0.080 6.929-3.215 6.929-7.070 0-0.036-0-0.072-0.001-0.107l0 0.005c0-0.007 0-0.015 0-0.024 0-3.904-3.163-7.069-7.067-7.072h-0z"></path>
<path fill="#9ca6cf" style="fill: var(--color4, #9ca6cf)" d="M15.699 24.513c0.040-0.038 0.094-0.062 0.153-0.062s0.114 0.024 0.153 0.062l-0-0c0.359 0.375 0.689 0.784 0.983 1.22l0.021 0.033c0.463 0.611 0.77 1.363 0.85 2.182l0.001 0.018c0.002 0.037 0.003 0.079 0.003 0.122 0 0.594-0.224 1.135-0.593 1.544l0.002-0.002c-0.371 0.347-0.87 0.56-1.42 0.56s-1.049-0.213-1.421-0.561l0.001 0.001c-0.353-0.403-0.569-0.934-0.569-1.516 0-0.052 0.002-0.104 0.005-0.155l-0 0.007c0.079-0.837 0.387-1.59 0.859-2.21l-0.008 0.011c0.308-0.47 0.631-0.879 0.985-1.258l-0.005 0.005z"></path>
</symbol>
<symbol id="icon-sun" viewBox="0 0 32 32">
<path fill="#ffae47" style="fill: var(--color3, #ffae47)" d="M15.993 7.383c-0.002 0-0.004 0-0.007 0-4.755 0-8.61 3.855-8.61 8.61s3.855 8.61 8.61 8.61c4.755 0 8.61-3.855 8.61-8.61v0c-0.004-4.751-3.852-8.602-8.602-8.61h-0.001zM15.993 4.918c0.020 0.001 0.043 0.002 0.067 0.002 0.572 0 1.036-0.464 1.036-1.036 0-0.069-0.007-0.137-0.020-0.202l0.001 0.007v-2.458c0.011-0.057 0.017-0.122 0.017-0.188 0-0.576-0.467-1.043-1.043-1.043-0.021 0-0.041 0.001-0.061 0.002l0.003-0c-0.742 0.112-1.356 0.577-1.672 1.216l-0.006 0.013v2.458c0.32 0.653 0.934 1.12 1.666 1.228l0.012 0.001zM15.993 27.061c-0.746 0.116-1.361 0.589-1.672 1.236l-0.006 0.013v2.458c0.32 0.653 0.934 1.12 1.666 1.228l0.012 0.001c0.020 0.001 0.043 0.002 0.067 0.002 0.572 0 1.036-0.464 1.036-1.036 0-0.069-0.007-0.137-0.020-0.202l0.001 0.007v-2.458c0.013-0.063 0.021-0.135 0.021-0.209 0-0.576-0.467-1.043-1.043-1.043-0.022 0-0.044 0.001-0.066 0.002l0.003-0zM25.549 8.163l1.747-1.74c0.221-0.223 0.358-0.531 0.358-0.87s-0.137-0.647-0.358-0.87l0 0c-0.222-0.225-0.53-0.364-0.87-0.364s-0.648 0.139-0.87 0.364l-1.74 1.74c-0.202 0.218-0.325 0.511-0.325 0.833 0 0.679 0.55 1.229 1.229 1.229 0.32 0 0.612-0.122 0.83-0.323l-0.001 0.001zM6.423 23.823l-1.74 1.726c-0.224 0.223-0.363 0.532-0.363 0.873 0 0.681 0.552 1.233 1.233 1.233 0.34 0 0.647-0.137 0.87-0.359l-0 0 1.74-1.747c0.261-0.227 0.425-0.559 0.425-0.929 0-0.679-0.55-1.229-1.229-1.229-0.374 0-0.709 0.167-0.934 0.431l-0.001 0.002zM4.918 15.993c-0.066-0.712-0.558-1.293-1.217-1.488l-0.012-0.003h-2.458c-0.669 0.2-1.161 0.781-1.228 1.484l-0.001 0.007c0.014 0.682 0.551 1.233 1.226 1.27l0.003 0h2.458c0.679-0.034 1.219-0.587 1.229-1.269v-0.001zM30.748 14.501h-2.437c-0.671 0.199-1.163 0.78-1.229 1.485l-0 0.007c0.011 0.683 0.55 1.237 1.226 1.27l0.003 0h2.458c0.678-0.037 1.215-0.589 1.229-1.269l0-0.001c-0.071-0.716-0.572-1.298-1.238-1.488l-0.012-0.003zM6.423 8.163c0.222 0.225 0.53 0.364 0.87 0.364s0.648-0.139 0.87-0.364l0-0c0.221-0.223 0.358-0.531 0.358-0.87s-0.137-0.647-0.358-0.87l-1.74-1.74c-0.223-0.223-0.53-0.36-0.87-0.36-0.679 0-1.23 0.551-1.23 1.23 0 0.34 0.138 0.647 0.36 0.87v0zM25.549 23.816c-0.214-0.184-0.494-0.296-0.8-0.296-0.679 0-1.229 0.55-1.229 1.229 0 0.306 0.112 0.587 0.298 0.802l-0.001-0.002 1.733 1.747c0.223 0.221 0.531 0.358 0.87 0.358s0.647-0.137 0.87-0.358l-0 0c0.225-0.222 0.364-0.53 0.364-0.87s-0.139-0.648-0.364-0.87l-0-0z"></path>
</symbol>
<symbol id="icon-temperature" viewBox="0 0 32 32">
<path fill="#6467e5" style="fill: var(--color1, #6467e5)" d="M18.247 23.484v-20.975c0.002-0.036 0.003-0.077 0.003-0.119 0-1.267-0.991-2.303-2.24-2.374l-0.006-0c-1.256 0.072-2.247 1.107-2.247 2.375 0 0.042 0.001 0.083 0.003 0.125l-0-0.006v20.975c-1.352 0.812-2.243 2.27-2.244 3.936v0c-0 0.010-0 0.021-0 0.032 0 2.487 2.004 4.507 4.485 4.532l0.002 0c2.486-0.050 4.481-2.077 4.481-4.57 0-1.663-0.889-3.119-2.217-3.919l-0.021-0.012z"></path>
</symbol>
<symbol id="icon-thunderstorm" viewBox="0 0 32 32">
<path fill="#ffae47" style="fill: var(--color3, #ffae47)" d="M25.622 23.129l-2.899-0.216 2.981-3.235c0.018-0.020 0.030-0.047 0.030-0.077 0-0.060-0.047-0.11-0.106-0.115l-0-0-5.439-0.407-0.101 0.048-4.006 5.851c-0.012 0.018-0.019 0.039-0.019 0.063 0 0.060 0.046 0.109 0.104 0.114l2.526 0.187-1.572 4.725c-0.006 0.013-0.010 0.029-0.010 0.046 0 0.061 0.049 0.11 0.11 0.11 0.030 0 0.057-0.012 0.077-0.031l-0 0 8.386-6.881c0.015-0.019 0.024-0.044 0.024-0.071 0-0.053-0.036-0.098-0.086-0.111l-0.001-0z"></path>
<path fill="#ffae47" style="fill: var(--color3, #ffae47)" d="M16.038 24.567l-2.899-0.216 2.981-3.235c0.018-0.020 0.030-0.047 0.030-0.077 0-0.060-0.047-0.11-0.106-0.115l-0-0-5.439-0.407-0.101 0.048-4.006 5.851c-0.012 0.018-0.019 0.039-0.019 0.063 0 0.060 0.046 0.109 0.104 0.114l2.526 0.187-1.572 4.725c-0.006 0.013-0.010 0.029-0.010 0.046 0 0.061 0.049 0.11 0.11 0.11 0.030 0 0.057-0.012 0.077-0.031l-0 0 8.386-6.881c0.015-0.019 0.024-0.044 0.024-0.071 0-0.053-0.036-0.098-0.086-0.111l-0.001-0z"></path>
<path fill="#6467e5" style="fill: var(--color1, #6467e5)" d="M30.524 12.299c0.913 1.131 1.469 2.585 1.476 4.167v0.002c-0.041 3.799-3.129 6.862-6.934 6.862-0.019 0-0.037-0-0.056-0l0.003 0c-0.89-0.002-1.742-0.167-2.526-0.467l0.049 0.016c-1.736 1.498-4.014 2.411-6.505 2.411s-4.769-0.913-6.518-2.422l0.013 0.011c-0.736 0.282-1.587 0.446-2.477 0.446-0 0-0 0-0 0h0c-0.054 0.002-0.118 0.002-0.181 0.002-3.792 0-6.867-3.074-6.867-6.867s3.074-6.867 6.867-6.867c0.064 0 0.127 0.001 0.191 0.003l-0.009-0c0.001 0 0.001 0 0.002 0 0.348 0 0.689 0.026 1.023 0.077l-0.037-0.005c0.034-0.048 0.072-0.086 0.105-0.129-0.056-0.274-0.090-0.591-0.096-0.915l-0-0.005c0.035-3.025 2.495-5.463 5.525-5.463 0.014 0 0.027 0 0.041 0h-0.002c0.149 0 0.297 0 0.446 0 1.428-1.726 3.571-2.818 5.968-2.818s4.54 1.092 5.958 2.805l0.010 0.013c0.149 0 0.297 0 0.446 0 0.011-0 0.025-0 0.039-0 3.031 0 5.492 2.441 5.525 5.465l0 0.003c-0.005 1.426-0.566 2.72-1.478 3.678l0.002-0.002z"></path>
</symbol>
<symbol id="icon-snowy" viewBox="0 0 32 32">
<path fill="#9ca6cf" style="fill: var(--color1, #9ca6cf)" d="M16.163 30.648c-0.132 0-0.239-0.107-0.239-0.239v0-3.347c0-0.132 0.107-0.239 0.239-0.239v0c0.131 0.003 0.236 0.108 0.239 0.239v3.347c0 0.132-0.107 0.239-0.239 0.239v0z"></path>
<path fill="#9ca6cf" style="fill: var(--color1, #9ca6cf)" d="M15.202 30.519c-0.065-0.001-0.124-0.026-0.167-0.067l0 0c-0.044-0.043-0.071-0.103-0.071-0.17s0.027-0.126 0.071-0.17l0-0 1.157-1.191 1.186 1.186c0.043 0.043 0.070 0.103 0.070 0.17 0 0.133-0.108 0.24-0.24 0.24-0.066 0-0.126-0.027-0.17-0.070v0l-0.842-0.842-0.818 0.842c-0.044 0.044-0.105 0.072-0.173 0.072-0.001 0-0.003 0-0.004-0h0z"></path>
<path fill="#9ca6cf" style="fill: var(--color1, #9ca6cf)" d="M17.215 29.495c-0 0-0.001 0-0.002 0-0.055 0-0.106-0.018-0.147-0.048l0.001 0-0.88-0.665-0.837 0.665c-0.040 0.032-0.092 0.051-0.148 0.051-0.133 0-0.24-0.108-0.24-0.24 0-0.076 0.036-0.145 0.091-0.188l0.001-0 1.119-0.889 1.176 0.904c0.057 0.045 0.094 0.114 0.094 0.192 0 0.053-0.017 0.103-0.046 0.143l0-0.001c-0.044 0.047-0.106 0.077-0.175 0.077-0.002 0-0.004-0-0.007-0h0z"></path>
<path fill="#9ca6cf" style="fill: var(--color1, #9ca6cf)" d="M16.163 27.301c-0.132 0-0.239-0.107-0.239-0.239v0-3.347c0-0.132 0.107-0.239 0.239-0.239v0c0.131 0.003 0.236 0.108 0.239 0.239v3.347c0 0.132-0.107 0.239-0.239 0.239v0z"></path>
<path fill="#9ca6cf" style="fill: var(--color1, #9ca6cf)" d="M16.187 24.939l-1.157-1.191c-0.042-0.043-0.068-0.102-0.068-0.167 0-0.133 0.107-0.24 0.24-0.24 0.068 0 0.128 0.028 0.172 0.073l0 0 0.818 0.842 0.842-0.842c0.043-0.044 0.103-0.071 0.17-0.071s0.126 0.027 0.17 0.071l0 0c0.044 0.043 0.071 0.103 0.071 0.17s-0.027 0.126-0.071 0.17l-0 0z"></path>
<path fill="#9ca6cf" style="fill: var(--color1, #9ca6cf)" d="M16.172 25.68l-1.119-0.899c-0.046-0.044-0.075-0.105-0.075-0.174 0-0.132 0.107-0.239 0.239-0.239 0.049 0 0.095 0.015 0.133 0.041l-0.001-0.001 0.827 0.665 0.88-0.669c0.040-0.029 0.089-0.046 0.142-0.046 0.078 0 0.147 0.036 0.192 0.093l0 0c0.031 0.040 0.050 0.091 0.050 0.146 0 0.077-0.036 0.145-0.092 0.189l-0.001 0z"></path>
<path fill="#9ca6cf" style="fill: var(--color1, #9ca6cf)" d="M19.051 28.845c-0 0-0.001 0-0.002 0-0.044 0-0.084-0.012-0.119-0.034l-2.868-1.654c-0.072-0.043-0.12-0.121-0.12-0.21 0-0.042 0.011-0.082 0.030-0.116l-0.001 0.001c0.044-0.073 0.123-0.12 0.213-0.12 0.043 0 0.083 0.011 0.118 0.030l-0.001-0.001 2.869 1.654c0.071 0.043 0.118 0.121 0.118 0.209 0 0.044-0.012 0.086-0.033 0.122l0.001-0.001c-0.042 0.072-0.118 0.119-0.206 0.12h-0z"></path>
<path fill="#9ca6cf" style="fill: var(--color1, #9ca6cf)" d="M18.568 29.701c-0.001 0-0.002 0-0.004 0-0.107 0-0.198-0.072-0.226-0.171l-0-0.002-0.449-1.602 1.602-0.449c0.019-0.005 0.042-0.009 0.065-0.009 0.137 0 0.248 0.111 0.248 0.248 0 0.114-0.077 0.21-0.181 0.239l-0.002 0-1.143 0.32 0.32 1.138c0.006 0.020 0.009 0.042 0.009 0.066 0 0.11-0.074 0.202-0.175 0.23l-0.002 0z"></path>
<path fill="#9ca6cf" style="fill: var(--color1, #9ca6cf)" d="M17.693 29.199c-0.119-0.001-0.217-0.090-0.234-0.204l-0-0.001-0.22-1.434 1.348-0.583c0.028-0.013 0.060-0.020 0.095-0.020 0.097 0 0.18 0.059 0.216 0.143l0.001 0.002c0.013 0.028 0.020 0.061 0.020 0.096 0 0.098-0.059 0.182-0.143 0.219l-0.002 0.001-1.009 0.435 0.163 1.061c0.002 0.012 0.004 0.026 0.004 0.041 0 0.117-0.086 0.214-0.198 0.232l-0.001 0z"></path>
<path fill="#9ca6cf" style="fill: var(--color1, #9ca6cf)" d="M16.168 27.171c-0.044-0.002-0.085-0.014-0.121-0.034l0.001 0.001-2.869-1.654c-0.073-0.043-0.122-0.121-0.122-0.211 0-0.044 0.011-0.085 0.032-0.12l-0.001 0.001c0.041-0.072 0.117-0.12 0.204-0.12 0.045 0 0.086 0.012 0.122 0.034l-0.001-0.001 2.869 1.654c0.072 0.041 0.12 0.117 0.12 0.204 0 0.045-0.012 0.086-0.034 0.122l0.001-0.001c-0.039 0.073-0.114 0.122-0.201 0.124h-0z"></path>
<path fill="#9ca6cf" style="fill: var(--color1, #9ca6cf)" d="M12.797 26.392c-0.009 0.001-0.020 0.002-0.031 0.002-0.133 0-0.241-0.108-0.241-0.241 0-0.122 0.091-0.223 0.209-0.239l0.001-0 1.133-0.301-0.311-1.157c-0.005-0.018-0.007-0.039-0.007-0.060 0-0.136 0.11-0.246 0.246-0.246 0.115 0 0.211 0.079 0.239 0.185l0 0.002 0.43 1.616-1.592 0.43z"></path>
<path fill="#9ca6cf" style="fill: var(--color1, #9ca6cf)" d="M13.676 26.894c-0 0-0 0-0 0-0.1 0-0.186-0.060-0.224-0.147l-0.001-0.002c-0.011-0.026-0.017-0.057-0.017-0.089 0-0.1 0.062-0.186 0.149-0.222l0.002-0.001 0.98-0.402-0.139-1.105c-0.001-0.009-0.002-0.020-0.002-0.031 0-0.121 0.090-0.221 0.206-0.237l0.001-0c0.007-0.001 0.014-0.001 0.022-0.001 0.124 0 0.227 0.091 0.246 0.21l0 0.001 0.186 1.463-1.32 0.54c-0.025 0.012-0.055 0.019-0.087 0.019-0.001 0-0.003-0-0.004-0h0z"></path>
<path fill="#9ca6cf" style="fill: var(--color1, #9ca6cf)" d="M13.322 28.826c-0.131-0.001-0.237-0.108-0.237-0.239 0-0.087 0.046-0.163 0.116-0.205l0.001-0.001 2.869-1.678c0.035-0.020 0.076-0.032 0.121-0.032 0.088 0 0.166 0.047 0.208 0.117l0.001 0.001c0.021 0.034 0.034 0.076 0.034 0.121 0 0.087-0.048 0.163-0.118 0.204l-0.001 0.001-2.869 1.678c-0.033 0.021-0.073 0.034-0.116 0.034-0.003 0-0.006-0-0.009-0l0 0z"></path>
<path fill="#9ca6cf" style="fill: var(--color1, #9ca6cf)" d="M13.834 29.725h-0.062c-0.102-0.029-0.175-0.121-0.175-0.23 0-0.022 0.003-0.043 0.008-0.063l-0 0.002 0.301-1.162-1.138-0.292c-0.104-0.027-0.18-0.121-0.18-0.232 0-0.021 0.003-0.042 0.008-0.062l-0 0.002c0.024-0.112 0.122-0.194 0.239-0.194 0.027 0 0.054 0.005 0.079 0.013l-0.002-0 1.602 0.411-0.449 1.645c-0.031 0.095-0.119 0.163-0.223 0.163-0.002 0-0.005-0-0.007-0h0z"></path>
<path fill="#9ca6cf" style="fill: var(--color1, #9ca6cf)" d="M14.704 29.213h-0.029c-0.12-0.014-0.212-0.115-0.212-0.238 0-0.009 0.001-0.018 0.001-0.027l-0 0.001 0.134-1.105-0.99-0.392c-0.089-0.036-0.151-0.122-0.151-0.222 0-0.132 0.107-0.239 0.239-0.239 0.032 0 0.062 0.006 0.090 0.018l-0.002-0.001 1.329 0.531-0.177 1.468c-0.017 0.116-0.115 0.204-0.234 0.206h-0z"></path>
<path fill="#9ca6cf" style="fill: var(--color1, #9ca6cf)" d="M16.191 27.171c-0 0-0 0-0.001 0-0.089 0-0.167-0.047-0.209-0.118l-0.001-0.001c-0.032-0.040-0.051-0.090-0.051-0.146 0-0.094 0.055-0.175 0.135-0.212l0.001-0.001 2.869-1.683c0.039-0.029 0.088-0.046 0.141-0.046 0.132 0 0.239 0.107 0.239 0.239 0 0.096-0.057 0.179-0.139 0.217l-0.002 0.001-2.869 1.683c-0.030 0.032-0.069 0.056-0.113 0.067l-0.002 0z"></path>
<path fill="#9ca6cf" style="fill: var(--color1, #9ca6cf)" d="M19.572 26.359h-0.062l-1.607-0.435 0.435-1.621c0.024-0.103 0.115-0.178 0.224-0.178 0.024 0 0.048 0.004 0.070 0.011l-0.002-0c0.102 0.027 0.176 0.118 0.176 0.227 0 0.023-0.003 0.045-0.009 0.066l0-0.002-0.311 1.143 1.148 0.311c0.103 0.024 0.178 0.115 0.178 0.224 0 0.024-0.004 0.048-0.011 0.070l0-0.002c-0.025 0.106-0.118 0.185-0.229 0.186h-0z"></path>
<path fill="#9ca6cf" style="fill: var(--color1, #9ca6cf)" d="M18.702 26.87c-0.014 0.003-0.031 0.005-0.048 0.005s-0.033-0.002-0.049-0.005l0.002 0-1.348-0.579 0.201-1.434c0.017-0.118 0.118-0.208 0.239-0.208 0.133 0 0.241 0.108 0.241 0.241 0 0.012-0.001 0.023-0.003 0.035l0-0.001-0.148 1.057 1.014 0.435c0.086 0.038 0.144 0.122 0.144 0.22 0 0.035-0.007 0.068-0.021 0.098l0.001-0.002c-0.037 0.083-0.119 0.139-0.214 0.139-0.004 0-0.008-0-0.011-0l0 0z"></path>
<path fill="#9ca6cf" style="fill: var(--color1, #9ca6cf)" d="M24.387 25.77c-0.001 0-0.003 0-0.005 0-0.077 0-0.139-0.062-0.139-0.139 0-0.002 0-0.003 0-0.005v0-1.989c-0-0.001-0-0.003-0-0.005 0-0.077 0.062-0.139 0.139-0.139 0.002 0 0.003 0 0.005 0h-0c0.079 0 0.143 0.064 0.143 0.143v0 1.989c0 0.079-0.064 0.143-0.143 0.143v0z"></path>
<path fill="#9ca6cf" style="fill: var(--color1, #9ca6cf)" d="M24.985 25.689c-0 0-0 0-0.001 0-0.041 0-0.078-0.016-0.104-0.043v0l-0.478-0.502-0.478 0.502c-0.026 0.025-0.061 0.041-0.1 0.041s-0.075-0.016-0.1-0.041l0 0c-0.027-0.025-0.043-0.061-0.043-0.1s0.017-0.075 0.043-0.1l0-0 0.665-0.703 0.708 0.703c0.025 0.026 0.041 0.061 0.041 0.1s-0.016 0.075-0.041 0.1l0-0c-0.024 0.027-0.058 0.044-0.097 0.044-0.005 0-0.009-0-0.014-0.001l0.001 0z"></path>
<path fill="#9ca6cf" style="fill: var(--color1, #9ca6cf)" d="M24.985 25.087c-0.001 0-0.002 0-0.003 0-0.031 0-0.060-0.011-0.083-0.029l0 0-0.512-0.397-0.478 0.392c-0.026 0.025-0.061 0.041-0.1 0.041s-0.075-0.016-0.1-0.041l0 0c-0.025-0.025-0.041-0.060-0.041-0.098s0.015-0.073 0.041-0.098v0l0.679-0.555 0.698 0.526c0.035 0.026 0.057 0.068 0.057 0.115 0 0.078-0.062 0.141-0.139 0.143h-0z"></path>
<path fill="#9ca6cf" style="fill: var(--color1, #9ca6cf)" d="M24.387 23.777c-0.001 0-0.003 0-0.005 0-0.077 0-0.139-0.062-0.139-0.139 0-0 0-0 0-0v0-1.994c0-0.079 0.064-0.143 0.143-0.143v0c0.078 0.003 0.141 0.065 0.143 0.143v1.994c-0.003 0.077-0.066 0.139-0.143 0.139-0 0-0 0-0 0v0z"></path>
<path fill="#9ca6cf" style="fill: var(--color1, #9ca6cf)" d="M24.387 22.39l-0.689-0.708c-0.027-0.025-0.043-0.061-0.043-0.1s0.017-0.075 0.043-0.1l0-0c0.026-0.025 0.061-0.041 0.1-0.041s0.075 0.016 0.1 0.041l0.478 0.478 0.478-0.478c0.026-0.024 0.062-0.039 0.1-0.039s0.074 0.015 0.101 0.039l-0-0c0.025 0.026 0.041 0.061 0.041 0.1s-0.016 0.075-0.041 0.1l0-0z"></path>
<path fill="#9ca6cf" style="fill: var(--color1, #9ca6cf)" d="M24.387 22.811l-0.665-0.531c-0.039-0.026-0.064-0.070-0.064-0.119 0-0.079 0.064-0.143 0.143-0.143 0.038 0 0.072 0.014 0.097 0.038l-0-0 0.478 0.397 0.526-0.397c0.023-0.018 0.052-0.028 0.084-0.028 0.046 0 0.087 0.022 0.112 0.057l0 0c0.019 0.023 0.030 0.053 0.030 0.085 0 0.046-0.023 0.087-0.059 0.111l-0 0z"></path>
<path fill="#9ca6cf" style="fill: var(--color1, #9ca6cf)" d="M26.080 24.695c-0.010 0.003-0.021 0.005-0.033 0.005s-0.023-0.002-0.034-0.005l0.001 0-1.717-0.985c-0.044-0.023-0.073-0.068-0.073-0.119 0-0.027 0.008-0.051 0.021-0.072l-0 0.001c0.024-0.043 0.069-0.072 0.121-0.072 0.026 0 0.050 0.007 0.071 0.019l-0.001-0 1.717 0.985c0.043 0.024 0.072 0.069 0.072 0.121 0 0.026-0.007 0.050-0.019 0.071l0-0.001c-0.025 0.033-0.064 0.054-0.107 0.054-0.006 0-0.012-0-0.018-0.001l0.001 0z"></path>
<path fill="#9ca6cf" style="fill: var(--color1, #9ca6cf)" d="M25.793 25.206c-0.064-0-0.118-0.045-0.134-0.104l-0-0.001-0.273-0.956 0.956-0.268c0.011-0.003 0.023-0.004 0.035-0.004 0.066 0 0.122 0.044 0.141 0.104l0 0.001c0.003 0.011 0.004 0.023 0.004 0.035 0 0.066-0.044 0.122-0.104 0.141l-0.001 0-0.679 0.186 0.191 0.679c0.003 0.011 0.004 0.023 0.004 0.035 0 0.066-0.044 0.122-0.104 0.141l-0.001 0z"></path>
<path fill="#9ca6cf" style="fill: var(--color1, #9ca6cf)" d="M25.272 24.905c-0 0-0.001 0-0.001 0-0.070 0-0.128-0.052-0.137-0.119l-0-0.001-0.129-0.846 0.818-0.349c0.022-0.015 0.050-0.024 0.080-0.024 0.079 0 0.143 0.064 0.143 0.143 0 0.067-0.046 0.123-0.108 0.139l-0.001 0-0.593 0.263 0.096 0.631c0.001 0.006 0.002 0.014 0.002 0.021 0 0.071-0.052 0.131-0.12 0.142l-0.001 0z"></path>
<path fill="#9ca6cf" style="fill: var(--color1, #9ca6cf)" d="M24.387 23.71c-0.010 0.003-0.021 0.005-0.033 0.005s-0.023-0.002-0.034-0.005l0.001 0-1.721-0.985c-0.042-0.023-0.070-0.067-0.070-0.118 0-0.027 0.008-0.053 0.022-0.074l-0 0c0.024-0.043 0.069-0.072 0.121-0.072 0.026 0 0.050 0.007 0.071 0.019l-0.001-0 1.717 0.985c0.043 0.024 0.072 0.069 0.072 0.121 0 0.026-0.007 0.050-0.019 0.071l0-0.001c-0.025 0.033-0.064 0.054-0.107 0.054-0.006 0-0.012-0-0.018-0.001l0.001 0z"></path>
<path fill="#9ca6cf" style="fill: var(--color1, #9ca6cf)" d="M22.36 23.236c-0.065-0.001-0.12-0.045-0.138-0.104l-0-0.001c-0.003-0.011-0.005-0.024-0.005-0.037 0-0.065 0.044-0.119 0.105-0.134l0.001-0 0.674-0.182-0.182-0.693c-0.003-0.011-0.005-0.024-0.005-0.037 0-0.065 0.044-0.119 0.105-0.134l0.001-0c0.011-0.003 0.024-0.005 0.037-0.005 0.065 0 0.119 0.044 0.134 0.105l0 0.001 0.258 0.956-0.956 0.253z"></path>
<path fill="#9ca6cf" style="fill: var(--color1, #9ca6cf)" d="M22.881 23.538c-0.059-0-0.109-0.038-0.129-0.090l-0-0.001c-0.006-0.015-0.009-0.033-0.009-0.052 0-0.059 0.035-0.11 0.085-0.134l0.001-0 0.583-0.239-0.081-0.631c-0.003-0.011-0.005-0.024-0.005-0.037 0-0.079 0.064-0.143 0.143-0.143s0.143 0.064 0.143 0.143c0 0.001 0 0.002-0 0.003v-0l0.11 0.87-0.77 0.296c-0.017 0.009-0.038 0.015-0.060 0.015-0.004 0-0.008-0-0.012-0.001l0 0z"></path>
<path fill="#9ca6cf" style="fill: var(--color1, #9ca6cf)" d="M22.67 24.685c-0.001 0-0.003 0-0.004 0-0.050 0-0.094-0.029-0.115-0.071l-0-0.001c-0.014-0.021-0.022-0.046-0.022-0.074 0-0.050 0.028-0.094 0.069-0.117l0.001-0 1.707-0.999c0.025-0.021 0.057-0.034 0.092-0.034 0.079 0 0.143 0.064 0.143 0.143 0 0.061-0.038 0.113-0.091 0.134l-0.001 0-1.707 0.999c-0.018 0.012-0.040 0.019-0.064 0.019-0.003 0-0.006-0-0.008-0l0 0z"></path>
<path fill="#9ca6cf" style="fill: var(--color1, #9ca6cf)" d="M22.976 25.221h-0.024c-0.063-0.016-0.109-0.072-0.109-0.139 0-0.012 0.001-0.023 0.004-0.034l-0 0.001 0.182-0.693-0.674-0.172c-0.063-0.018-0.109-0.075-0.109-0.143 0-0.012 0.001-0.024 0.004-0.035l-0 0.001c0.018-0.061 0.073-0.105 0.138-0.105 0.012 0 0.024 0.002 0.035 0.004l-0.001-0 0.956 0.244-0.253 0.956c-0.016 0.066-0.074 0.115-0.144 0.115-0.001 0-0.003-0-0.004-0h0z"></path>
<path fill="#9ca6cf" style="fill: var(--color1, #9ca6cf)" d="M23.493 24.915v0c-0.071-0.007-0.126-0.066-0.126-0.138 0-0.007 0-0.014 0.002-0.020l-0 0.001 0.062-0.655-0.588-0.234c-0.054-0.022-0.091-0.073-0.091-0.134 0-0.079 0.064-0.144 0.144-0.144 0.019 0 0.037 0.004 0.054 0.010l-0.001-0 0.794 0.316-0.105 0.865c-0.005 0.075-0.067 0.134-0.143 0.134-0 0-0 0-0 0h0z"></path>
<path fill="#9ca6cf" style="fill: var(--color1, #9ca6cf)" d="M24.387 23.686c-0 0-0.001 0-0.001 0-0.050 0-0.094-0.027-0.118-0.066l-0-0.001c-0.014-0.021-0.022-0.047-0.022-0.075 0-0.051 0.028-0.096 0.070-0.12l0.001-0 1.712-1.004c0.021-0.012 0.045-0.019 0.072-0.019 0.079 0 0.144 0.064 0.144 0.144 0 0.053-0.029 0.099-0.071 0.124l-0.001 0-1.712 0.999c-0.019 0.012-0.042 0.019-0.066 0.019-0.002 0-0.004-0-0.006-0h0z"></path>
<path fill="#9ca6cf" style="fill: var(--color1, #9ca6cf)" d="M26.39 23.217h-0.033l-0.956-0.258 0.258-0.956c0.017-0.061 0.073-0.106 0.139-0.106 0.079 0 0.144 0.064 0.144 0.144 0 0.014-0.002 0.027-0.005 0.039l0-0.001-0.186 0.679 0.684 0.186c0.061 0.015 0.106 0.070 0.106 0.135 0 0.013-0.002 0.026-0.005 0.038l0-0.001c-0.020 0.059-0.076 0.1-0.14 0.1-0.001 0-0.002 0-0.003-0h0z"></path>
<path fill="#9ca6cf" style="fill: var(--color1, #9ca6cf)" d="M25.874 23.523h-0.057l-0.803-0.344 0.12-0.842c0.001-0.079 0.065-0.142 0.143-0.142s0.143 0.064 0.143 0.143c0 0.013-0.002 0.026-0.005 0.038l0-0.001-0.072 0.617 0.602 0.258c0.050 0.022 0.085 0.071 0.085 0.128 0 0.021-0.005 0.041-0.013 0.060l0-0.001c-0.021 0.051-0.071 0.087-0.129 0.087-0.005 0-0.010-0-0.015-0.001l0.001 0z"></path>
<path fill="#6467e5" style="fill: var(--color2, #6467e5)" d="M24.932 5.339c-0.348 0.001-0.689 0.030-1.021 0.086l0.036-0.005c-1.805-2.477-4.697-4.068-7.96-4.068-3.329 0-6.271 1.656-8.047 4.189l-0.021 0.032c-0.29-0.040-0.626-0.062-0.966-0.062-0.008 0-0.017 0-0.025 0h0.001c-3.844 0.080-6.93 3.215-6.93 7.070 0 0.044 0 0.088 0.001 0.132l-0-0.007c0.005 3.9 3.167 7.060 7.067 7.062h0c0.894-0.005 1.747-0.18 2.528-0.495l-0.046 0.016c1.708 1.517 3.97 2.443 6.448 2.443 2.544 0 4.859-0.976 6.593-2.574l-0.007 0.006c0.712 0.279 1.536 0.44 2.398 0.44 0.031 0 0.062-0 0.093-0.001l-0.005 0c3.844-0.080 6.929-3.215 6.929-7.070 0-0.036-0-0.072-0.001-0.107l0 0.005c0-0.007 0-0.015 0-0.024 0-3.904-3.163-7.069-7.067-7.072h-0z"></path>
</symbol>
<symbol id="icon-angle-double-right" viewBox="0 0 32 32">
<path d="M19.174 16c0 0.256-0.128 0.545-0.321 0.737l-14.942 14.942c-0.192 0.192-0.481 0.321-0.737 0.321s-0.545-0.128-0.737-0.321l-1.603-1.603c-0.192-0.192-0.321-0.481-0.321-0.737s0.128-0.545 0.321-0.737l12.601-12.601-12.601-12.601c-0.192-0.192-0.321-0.481-0.321-0.737s0.128-0.545 0.321-0.737l1.603-1.603c0.192-0.192 0.481-0.321 0.737-0.321s0.545 0.128 0.737 0.321l14.942 14.942c0.192 0.192 0.321 0.481 0.321 0.737zM31.487 16c0 0.256-0.128 0.545-0.321 0.737l-14.942 14.942c-0.192 0.192-0.481 0.321-0.737 0.321s-0.545-0.128-0.737-0.321l-1.603-1.603c-0.192-0.192-0.321-0.481-0.321-0.737s0.128-0.545 0.321-0.737l12.601-12.601-12.601-12.601c-0.192-0.192-0.321-0.481-0.321-0.737s0.128-0.545 0.321-0.737l1.603-1.603c0.192-0.192 0.481-0.321 0.737-0.321s0.545 0.128 0.737 0.321l14.942 14.942c0.192 0.192 0.321 0.481 0.321 0.737z"></path>
</symbol>
<symbol id="icon-angle-double-left" viewBox="0 0 32 32">
<path d="M19.174 29.339c0 0.256-0.128 0.545-0.321 0.737l-1.603 1.603c-0.192 0.192-0.481 0.321-0.737 0.321s-0.545-0.128-0.737-0.321l-14.942-14.942c-0.192-0.192-0.321-0.481-0.321-0.737s0.128-0.545 0.321-0.737l14.942-14.942c0.192-0.192 0.481-0.321 0.737-0.321s0.545 0.128 0.737 0.321l1.603 1.603c0.192 0.192 0.321 0.481 0.321 0.737s-0.128 0.545-0.321 0.737l-12.601 12.601 12.601 12.601c0.192 0.192 0.321 0.481 0.321 0.737zM31.487 29.339c0 0.256-0.128 0.545-0.321 0.737l-1.603 1.603c-0.192 0.192-0.481 0.321-0.737 0.321s-0.545-0.128-0.737-0.321l-14.942-14.942c-0.192-0.192-0.321-0.481-0.321-0.737s0.128-0.545 0.321-0.737l14.942-14.942c0.192-0.192 0.481-0.321 0.737-0.321s0.545 0.128 0.737 0.321l1.603 1.603c0.192 0.192 0.321 0.481 0.321 0.737s-0.128 0.545-0.321 0.737l-12.601 12.601 12.601 12.601c0.192 0.192 0.321 0.481 0.321 0.737z"></path>
</symbol>
</defs>
</svg>
