<svg width="91" height="139" viewBox="0 0 91 139" fill="none" xmlns="http://www.w3.org/2000/svg">
<path d="M86.1742 115.79C81.2257 124.112 73.8149 130.692 64.9655 134.621C56.116 138.55 46.2646 139.635 36.7722 137.725C16.7142 133.506 -0.810491 115.34 0.028972 93.8288C0.957581 71.058 21.8439 58.6679 23.3705 57.9214C23.7361 59.852 24.8299 61.5683 26.4256 62.7151C28.0212 63.862 29.9967 64.3517 31.9434 64.083C32.9266 63.8694 33.8581 63.4642 34.6845 62.8904C35.5109 62.3167 36.2162 61.5856 36.7599 60.7392C37.3035 59.8927 37.675 58.9473 37.853 57.9572C38.0311 56.9671 38.0121 55.9515 37.7974 54.9687C37.7528 54.7533 37.6934 54.5416 37.6302 54.3299C36.3994 50.1386 35.637 45.8237 35.357 41.4645C34.7858 32.3092 36.4707 23.1537 40.2638 14.8013C42.6762 9.66771 45.9051 4.95912 49.8247 0.858826C50.2841 6.72009 51.5529 12.4895 53.5949 18.0028C57.5433 28.7179 62.881 33.7727 70.4138 44.744C77.0998 54.3485 82.3818 62.0105 85.8548 71.1657C88.1577 77.3681 95.9989 98.2559 86.1742 115.79Z" fill="url(#paint0_linear)"/>
<path d="M47.6096 95.2502V117.894" stroke="#5767C0" stroke-width="5" stroke-miterlimit="10" stroke-linecap="round"/>
<path d="M41.0107 117.894L47.7023 111.021L54.5758 117.894" stroke="#5767C0" stroke-width="5" stroke-miterlimit="10" stroke-linecap="round"/>
<path d="M41.0107 111.021L47.6096 105.776L54.5758 111.021" stroke="#5767C0" stroke-width="5" stroke-miterlimit="10" stroke-linecap="round"/>
<path d="M47.6096 95.2502V72.6062" stroke="#5767C0" stroke-width="5" stroke-miterlimit="10" stroke-linecap="round"/>
<path d="M41.0107 72.6062L47.7023 79.4791L54.5758 72.6062" stroke="#5767C0" stroke-width="5" stroke-miterlimit="10" stroke-linecap="round"/>
<path d="M41.0107 79.479L47.6096 84.759L54.5758 79.479" stroke="#5767C0" stroke-width="5" stroke-miterlimit="10" stroke-linecap="round"/>
<path d="M47.5478 95.4046L67.063 106.603" stroke="#5767C0" stroke-width="5" stroke-miterlimit="10" stroke-linecap="round"/>
<path d="M63.8115 112.401L61.2022 103.136L70.4997 100.527" stroke="#5767C0" stroke-width="5" stroke-miterlimit="10" stroke-linecap="round"/>
<path d="M57.889 108.996L56.5981 100.588L64.5772 97.1212" stroke="#5767C0" stroke-width="5" stroke-miterlimit="10" stroke-linecap="round"/>
<path d="M47.5478 95.4046L28.0018 84.2063" stroke="#5767C0" stroke-width="5" stroke-miterlimit="10" stroke-linecap="round"/>
<path d="M24.716 90.0046L33.9552 87.5191L31.4385 78.1299" stroke="#5767C0" stroke-width="5" stroke-miterlimit="10" stroke-linecap="round"/>
<path d="M30.6386 93.4101L38.4632 90.2208L37.3611 81.5354" stroke="#5767C0" stroke-width="5" stroke-miterlimit="10" stroke-linecap="round"/>
<path d="M47.6988 95.1266L28.2455 106.479" stroke="#5767C0" stroke-width="5" stroke-miterlimit="10" stroke-linecap="round"/>
<path d="M24.9323 100.743L34.1989 103.105L31.7441 112.556" stroke="#5767C0" stroke-width="5" stroke-miterlimit="10" stroke-linecap="round"/>
<path d="M30.8239 97.2756L38.6794 100.406L37.6357 109.089" stroke="#5767C0" stroke-width="5" stroke-miterlimit="10" stroke-linecap="round"/>
<path d="M47.6989 95.1266L67.1247 83.7462" stroke="#5767C0" stroke-width="5" stroke-miterlimit="10" stroke-linecap="round"/>
<path d="M63.8115 77.9754L61.2949 87.2719L70.6233 89.7883" stroke="#5767C0" stroke-width="5" stroke-miterlimit="10" stroke-linecap="round"/>
<path d="M57.9199 81.4427L56.7217 89.8192L64.7317 93.2556" stroke="#5767C0" stroke-width="5" stroke-miterlimit="10" stroke-linecap="round"/>
<path d="M48.4851 95.4046V117.338" stroke="#F0F1F7" stroke-width="1.25" stroke-miterlimit="10" stroke-linecap="round"/>
<path d="M42.0921 117.338L48.5743 110.681L55.2315 117.338" stroke="#F0F1F7" stroke-width="1.25" stroke-miterlimit="10" stroke-linecap="round"/>
<path d="M42.0921 110.681L48.485 105.597L55.2315 110.681" stroke="#F0F1F7" stroke-width="1.25" stroke-miterlimit="10" stroke-linecap="round"/>
<path d="M48.4851 95.4046V73.4713" stroke="#F0F1F7" stroke-width="1.25" stroke-miterlimit="10" stroke-linecap="round"/>
<path d="M42.0921 73.4713L48.5743 80.1279L55.2315 73.4713" stroke="#F0F1F7" stroke-width="1.25" stroke-miterlimit="10" stroke-linecap="round"/>
<path d="M42.0921 80.1279L48.485 85.2396L55.2315 80.1279" stroke="#F0F1F7" stroke-width="1.25" stroke-miterlimit="10" stroke-linecap="round"/>
<path d="M48.4267 95.5522L67.3582 106.4" stroke="#F0F1F7" stroke-width="1.25" stroke-miterlimit="10" stroke-linecap="round"/>
<path d="M64.1789 112.017L61.6519 103.043L70.6576 100.516" stroke="#F0F1F7" stroke-width="1.25" stroke-miterlimit="10" stroke-linecap="round"/>
<path d="M58.4418 108.718L57.192 100.575L64.9205 97.2173" stroke="#F0F1F7" stroke-width="1.25" stroke-miterlimit="10" stroke-linecap="round"/>
<path d="M48.4266 95.5523L29.4918 84.7041" stroke="#F0F1F7" stroke-width="1.25" stroke-miterlimit="10" stroke-linecap="round"/>
<path d="M26.3091 90.3238L35.2564 87.9139L32.8187 78.8199" stroke="#F0F1F7" stroke-width="1.25" stroke-miterlimit="10" stroke-linecap="round"/>
<path d="M32.0771 93.6195L39.627 90.5298L38.5558 82.119" stroke="#F0F1F7" stroke-width="1.25" stroke-miterlimit="10" stroke-linecap="round"/>
<path d="M48.5744 95.2845L29.7596 106.284" stroke="#F0F1F7" stroke-width="1.25" stroke-miterlimit="10" stroke-linecap="round"/>
<path d="M26.5186 100.726L35.4933 103.012L33.1174 112.168" stroke="#F0F1F7" stroke-width="1.25" stroke-miterlimit="10" stroke-linecap="round"/>
<path d="M32.2247 97.3649L39.833 100.396L38.8236 108.807" stroke="#F0F1F7" stroke-width="1.25" stroke-miterlimit="10" stroke-linecap="round"/>
<path d="M48.5744 95.2845L67.42 84.2578" stroke="#F0F1F7" stroke-width="1.25" stroke-miterlimit="10" stroke-linecap="round"/>
<path d="M64.1789 78.6723L61.7412 87.677L70.7778 90.1144" stroke="#F0F1F7" stroke-width="1.25" stroke-miterlimit="10" stroke-linecap="round"/>
<path d="M58.4727 82.0297L57.3122 90.1453L65.0716 93.4719" stroke="#F0F1F7" stroke-width="1.25" stroke-miterlimit="10" stroke-linecap="round"/>
<defs>
<linearGradient id="paint0_linear" x1="16.9631" y1="50.3262" x2="92.2775" y2="115.954" gradientUnits="userSpaceOnUse">
<stop stop-color="#9CA6CF"/>
<stop offset="1" stop-color="#5767C0"/>
</linearGradient>
</defs>
</svg>
